<?xml version="1.0" encoding="UTF-8" standalone="no"?>
<svg width="122px" height="27px" viewBox="0 0 122 27" version="1.1" xmlns="http://www.w3.org/2000/svg" xmlns:xlink="http://www.w3.org/1999/xlink">
    <!-- Generator: Sketch 39.1 (31720) - http://www.bohemiancoding.com/sketch -->
    <title>Page 1</title>
    <desc>Created with Sketch.</desc>
    <defs>
        <polygon id="path-1" points="0.207310109 3.68851215 3.91395512 3.68851215 3.91395512 0.00121904744 0.207310109 0.00121904744"></polygon>
        <polygon id="path-3" points="3.14611176e-21 0.220365548 3.14611176e-21 23.7318641 20.3469974 23.7318641 20.3469974 0.220365548 0 0.220365548"></polygon>
    </defs>
    <g id="Page-1" stroke="none" stroke-width="1" fill="none" fill-rule="evenodd">
        <g id="-" transform="translate(-51.000000, -24.000000)">
            <g id="HEADER" transform="translate(0.000000, -2.000000)">
                <g id="Page-1" transform="translate(51.000000, 26.000000)">
                    <g id="Group-3" transform="translate(1.624995, 22.371979)">
                        <mask id="mask-2" fill="white">
                            <use xlink:href="#path-1"></use>
                        </mask>
                        <g id="Clip-2"></g>
                        <path d="M3.37267612,0.539998178 C2.78837452,-0.0404814208 1.91366319,-0.150906253 1.21607625,0.203882509 C1.18775492,0.221633474 1.15804074,0.237540182 1.1297194,0.255291147 C1.05589822,0.298170101 0.982541328,0.340357458 0.9145237,0.393840884 C0.860666739,0.444327394 0.804720499,0.494583372 0.752952817,0.546222542 C0.698863714,0.598322776 0.64918531,0.653650459 0.598114053,0.707133885 C0.531257136,0.791278068 0.475078754,0.880493956 0.425168208,0.972937291 C0.374561236,1.11171756 0.319775707,1.24934517 0.266615172,1.38605065 C0.108758562,1.99603835 0.265222319,2.66965288 0.745756413,3.1480068 C1.3818257,3.77989503 2.36332238,3.85735379 3.08481995,3.38268838 C3.17489107,3.29900526 3.2649622,3.21670534 3.3527119,3.12887264 C3.44092589,3.04219261 3.52496132,2.95251565 3.60830033,2.86306923 C3.64869305,2.80128666 3.67980008,2.73581556 3.71253212,2.67172767 C3.75524626,2.5617639 3.80260324,2.45341385 3.84415667,2.34091423 C4.01965608,1.72009153 3.86481732,1.02872604 3.37267612,0.539998178" id="Fill-1" fill="#EC7F00" mask="url(#mask-2)"></path>
                    </g>
                    <g id="Group-6" transform="translate(0.000000, 0.010374)">
                        <mask id="mask-4" fill="white">
                            <use xlink:href="#path-3"></use>
                        </mask>
                        <g id="Clip-5"></g>
                        <path d="M11.5128308,14.1069222 C8.66885825,14.1069222 6.36299103,11.8179699 6.36299103,8.99395275 C6.36299103,6.16924404 8.66885825,3.87960013 11.5128308,3.87960013 C14.3565712,3.87960013 16.6622063,6.16924404 16.6622063,8.99395275 C16.6622063,11.8179699 14.3565712,14.1069222 11.5128308,14.1069222 M11.5128308,0.220365548 C8.36150215,0.220365548 5.60365431,1.86359771 4.03971316,4.32890701 C3.83891026,3.99302188 3.62975025,3.66128632 3.41176885,3.33600565 C3.38298323,3.29404882 3.35605475,3.24955615 3.32657271,3.20782985 C3.27294789,3.13359855 3.2139838,3.06190309 3.14759117,2.99504881 C2.47948628,2.33111662 1.42904339,2.28431863 0.70452798,2.84958311 C0.651367445,2.90053069 0.595653348,2.94871188 0.544117807,3.00081211 C0.491421556,3.05360394 0.441975295,3.10824003 0.391368322,3.16080132 C-0.0917193334,3.77009742 -0.125844218,4.61084766 0.279011559,5.25679835 C0.302225766,5.2895339 0.322189984,5.32365263 0.343547055,5.35615765 C0.453118114,5.51776058 0.557349905,5.68212991 0.66088527,5.84696029 C2.12175534,8.17003135 3.09001993,10.8278349 3.42616165,13.6785937 C3.43219735,13.7217032 3.43892947,13.7643516 3.44264374,13.807 C3.51994705,14.5004403 3.56289334,15.2019492 3.56289334,15.9152153 C3.56289334,18.0416425 3.2067874,20.0850782 2.55841458,21.9945749 C2.51732544,22.1179095 2.47762914,22.2414747 2.43305786,22.362965 C2.48250412,22.2707522 2.53937893,22.1813058 2.60623585,22.0978532 C2.65684282,22.0432171 2.70675337,21.9890421 2.76014604,21.9362503 C2.81330658,21.8839195 2.86809211,21.8343551 2.92241335,21.7838686 C2.99089527,21.7306157 3.0644843,21.6872757 3.13760906,21.6460105 C3.16662682,21.62849 3.19425172,21.6079727 3.22396591,21.5934492 C3.92155284,21.2384299 4.79672846,21.3495463 5.38033363,21.9295648 C5.87224269,22.4176011 6.02731359,23.1112719 5.85204633,23.7318641 C6.66988285,21.5169125 7.14345268,19.1389749 7.22447027,16.6619084 C8.4947517,17.3631868 9.95562177,17.7668484 11.5128308,17.7668484 C16.3926893,17.7668484 20.3469974,13.8388135 20.3469974,8.99395275 C20.3469974,4.14840045 16.3926893,0.220365548 11.5128308,0.220365548" id="Fill-4" fill="#FFFFFF" mask="url(#mask-4)"></path>
                    </g>
                    <path d="M26.669294,7.0526427 C26.9316145,6.44634352 27.2914347,5.9103566 27.7387725,5.46174131 C28.1861103,5.01289548 28.7223585,4.65096023 29.3328921,4.38492629 C29.9394793,4.12188927 30.6045664,3.9881807 31.3100462,3.9881807 C32.0050795,3.9881807 32.6652916,4.12188927 33.272111,4.38607895 C33.8831089,4.65096023 34.4219107,5.01543134 34.873427,5.46957939 C35.326104,5.92372745 35.6884778,6.45925331 35.9510305,7.06140292 C36.2124225,7.66009455 36.3445113,8.30812002 36.3445113,8.98772839 C36.3445113,9.66756728 36.2124225,10.3158233 35.9510305,10.9138233 C35.6889421,11.5157424 35.3265683,12.0519599 34.873427,12.5063384 C34.4219107,12.9597949 33.8831089,13.324266 33.272111,13.5900694 C32.0487222,14.1216762 30.5384059,14.112916 29.3328921,13.5900694 C28.7218942,13.324266 28.1858781,12.9621002 27.7387725,12.5134849 C27.2914347,12.0646391 26.9316145,11.5298049 26.6688297,10.922353 C26.4076698,10.3197423 26.275581,9.669181 26.275581,8.98772839 C26.275581,8.3065063 26.4076698,7.65548391 26.669294,7.0526427 M37.5437573,2.79494703 C35.8101203,1.0936208 33.7129488,0.231661616 31.3100462,0.231661616 C28.8860186,0.231661616 26.7879186,1.0936208 25.0751743,2.79702181 C23.3617337,4.49788698 22.4928259,6.58143527 22.4928259,8.98772839 C22.4928259,11.394252 23.3617337,13.4782614 25.0751743,15.178435 C26.7879186,16.8804528 28.8860186,17.7433341 31.3100462,17.7433341 C32.3542212,17.7433341 33.3508071,17.5745847 34.2714826,17.242388 C35.0101587,16.975893 35.711692,16.6114219 36.3644755,16.1565823 C36.4215825,16.5514836 36.5998676,16.900048 36.8970094,17.1944374 C37.2630975,17.5589085 37.7157745,17.7433341 38.2432013,17.7433341 C38.7604139,17.7433341 39.2084481,17.5589085 39.5750004,17.1944374 C39.9413206,16.8304273 40.1270343,16.3857311 40.1270343,15.8727974 L40.1270343,8.98772839 C40.1270343,6.58143527 39.2583586,4.49788698 37.5437573,2.79494703" id="Fill-7" fill="#FFFFFF"></path>
                    <path d="M63.4936197,1.3752387 C63.3935665,1.15323638 63.2586919,0.954748316 63.0922461,0.782771437 C62.9227824,0.609180834 62.7205866,0.471783757 62.4912302,0.376112973 C62.262106,0.280903253 62.0127854,0.231569403 61.750697,0.231569403 C61.3061449,0.231569403 60.9323962,0.329314975 60.6405936,0.523192395 C60.3392732,0.723063647 60.1345239,0.990711309 60.0344707,1.31207293 L57.1287483,9.94226922 L54.3286506,1.59839369 C54.0238481,0.704621086 53.3996181,0.231569403 52.5209603,0.231569403 C51.6330169,0.231569403 51.0032154,0.704621086 50.6993414,1.59885475 L47.898083,9.92797624 L44.9891107,1.30192952 C44.8765218,1.0043127 44.6678261,0.748422168 44.3690592,0.542096019 C43.8857394,0.21059099 43.138242,0.125294147 42.5360654,0.376112973 C42.3069412,0.471783757 42.1047454,0.609180834 41.934121,0.784385161 C41.767443,0.955670444 41.6341935,1.15669436 41.5390152,1.38146306 C41.442212,1.60853709 41.3934621,1.85082624 41.3934621,2.10256719 C41.3934621,2.31350398 41.4338549,2.54726343 41.5148724,2.80154024 L46.1228926,16.5294909 C46.2452315,16.8805911 46.4687843,17.1733668 46.7875154,17.4002102 C47.4252096,17.8543583 48.3674743,17.8562026 49.0153828,17.4020545 C49.3436317,17.1726752 49.5671846,16.8764415 49.6760592,16.5262634 L52.5209603,8.04960143 L55.3637721,16.5170421 C55.4628968,16.8508525 55.6794854,17.1415533 56.0061093,17.3831509 C56.3320367,17.6224431 56.7097319,17.7434724 57.1278198,17.7434724 C57.6120681,17.7434724 58.0081025,17.6252095 58.3040836,17.3919111 C58.595422,17.164376 58.7983141,16.8709088 58.9055638,16.5262634 L63.5075482,2.81306684 C63.6022622,2.56824185 63.649387,2.32918015 63.649387,2.10256719 C63.649387,1.85082624 63.5973872,1.60600124 63.4936197,1.3752387" id="Fill-9" fill="#FFFFFF"></path>
                    <path d="M69.2137397,7.0526427 C69.4765245,6.44634352 69.8354162,5.9103566 70.2834504,5.46174131 C70.7310203,5.01289548 71.2670363,4.65096023 71.8780343,4.38492629 C72.4839251,4.12188927 73.14878,3.9881807 73.8544919,3.9881807 C74.5492931,3.9881807 75.2095052,4.12188927 75.8165567,4.38607895 C76.4280189,4.65096023 76.9663564,5.01543134 77.418337,5.46957939 C77.8703176,5.92372745 78.2331557,6.45925331 78.4952441,7.06140292 C78.7564039,7.66009455 78.8889571,8.30812002 78.8889571,8.98772839 C78.8889571,9.66756728 78.7564039,10.3158233 78.4952441,10.9138233 C78.2340843,11.5157424 77.8710141,12.0519599 77.418337,12.5063384 C76.9663564,12.9597949 76.4280189,13.324266 75.8165567,13.5900694 C74.5938644,14.1216762 73.0821552,14.112916 71.8780343,13.5900694 C71.2670363,13.324266 70.7298596,12.9621002 70.2834504,12.5134849 C69.8354162,12.0646391 69.4765245,11.5298049 69.2137397,10.922353 C68.9523477,10.3197423 68.8202589,9.669181 68.8202589,8.98772839 C68.8202589,8.3065063 68.9523477,7.65548391 69.2137397,7.0526427 M82.0177679,5.62841595 C81.5948051,4.59932106 80.9445751,3.64722386 80.0884352,2.79494703 C78.3550303,1.0936208 76.2580909,0.231661616 73.8544919,0.231661616 C71.4306965,0.231661616 69.3325964,1.0936208 67.6191558,2.79702181 C65.9057151,4.49788698 65.0375038,6.58143527 65.0375038,8.98772839 C65.0375038,11.394252 65.9057151,13.4782614 67.6191558,15.178435 C69.3325964,16.8804528 71.4306965,17.7433341 73.8544919,17.7433341 C76.2580909,17.7433341 78.3550303,16.8813749 80.0884352,15.1798182 C81.8023401,13.4990093 82.6717122,11.415922 82.6717122,8.984962 C82.6614979,7.7836597 82.4409629,6.65382233 82.0177679,5.62841595" id="Fill-11" fill="#FFFFFF"></path>
                    <path d="M88.8583216,7.0526427 C89.1215707,6.44634352 89.4816231,5.9103566 89.929193,5.46174131 C90.3762987,5.01289548 90.9113861,4.65096023 91.5223841,4.38492629 C92.1282749,4.12188927 92.7949869,3.9881807 93.5000024,3.9881807 C94.1943393,3.9881807 94.8550157,4.12188927 95.4616029,4.38607895 C96.0726009,4.65096023 96.6111705,5.01543134 97.0633832,5.46957939 C97.5158281,5.92372745 97.8784341,6.45925331 98.1405225,7.06140292 C98.4021466,7.66009455 98.5344676,8.30812002 98.5344676,8.98772839 C98.5344676,9.66756728 98.4021466,10.3158233 98.1405225,10.9138233 C97.8784341,11.5157424 97.5162924,12.0519599 97.0633832,12.5063384 C96.6111705,12.9597949 96.0726009,13.324266 95.4616029,13.5900694 C94.2389106,14.1216762 92.7285943,14.112916 91.5223841,13.5900694 C90.9113861,13.324266 90.3753701,12.9621002 89.929193,12.5134849 C89.4816231,12.0646391 89.1215707,11.5298049 88.8583216,10.922353 C88.5971618,10.3197423 88.465073,9.669181 88.465073,8.98772839 C88.465073,8.3065063 88.5971618,7.65548391 88.8583216,7.0526427 M101.663743,5.62841595 C101.240083,4.59932106 100.590782,3.64722386 99.7332492,2.79494703 C98.0000765,1.0936208 95.9031372,0.231661616 93.5000024,0.231661616 C91.0750463,0.231661616 88.9781069,1.0936208 87.2651306,2.79702181 C85.5512257,4.49788698 84.6830143,6.58143527 84.6830143,8.98772839 C84.6830143,11.394252 85.5512257,13.4782614 87.2651306,15.178435 C88.9781069,16.8804528 91.0750463,17.7433341 93.5000024,17.7433341 C95.9031372,17.7433341 98.0000765,16.8813749 99.7332492,15.1798182 C101.447618,13.4990093 102.316991,11.415922 102.316991,8.984962 C102.305848,7.7836597 102.086241,6.65382233 101.663743,5.62841595" id="Fill-13" fill="#FFFFFF"></path>
                    <path d="M120.933833,5.22009765 C120.492995,4.22719629 119.888497,3.35163572 119.134268,2.61992712 C118.381431,1.88821853 117.499988,1.30128403 116.512919,0.875030347 C115.520744,0.448085066 114.459623,0.23161551 113.358805,0.23161551 C111.654882,0.23161551 110.13203,0.676311755 108.822981,1.5560219 C108.736392,1.27592551 108.578535,1.01957392 108.350804,0.789041908 C107.608182,0.041657134 106.395007,0.0557195866 105.670027,0.789041908 C105.304636,1.15789312 105.119619,1.60420309 105.119619,2.11713681 L105.119619,15.8579972 C105.119619,16.3817659 105.305797,16.8310728 105.671652,17.1943913 C106.396632,17.9157259 107.608878,17.930941 108.349179,17.1943913 C108.715499,16.8303812 108.901677,16.3810743 108.901677,15.8579972 L108.901677,8.41388811 C108.901677,7.81335223 109.018445,7.23886646 109.249426,6.70541539 C109.481104,6.1703506 109.805406,5.69407147 110.211423,5.28879619 C110.617904,4.88536518 111.094956,4.56423409 111.630972,4.33370208 C112.686522,3.87840136 113.99441,3.86848849 115.076656,4.33992644 C115.617547,4.57599122 116.095528,4.89781391 116.496902,5.29594269 C116.900132,5.69637679 117.223506,6.17150326 117.460291,6.70702911 C117.69638,7.24024965 117.814772,7.81404382 117.814772,8.41388811 L117.814772,15.8579972 C117.814772,16.3817659 118.000486,16.8310728 118.367502,17.1953134 C118.733823,17.5588624 119.187196,17.7435185 119.713462,17.7435185 C120.230907,17.7435185 120.678941,17.5588624 121.045493,17.1953134 C121.412046,16.8310728 121.597527,16.3817659 121.597527,15.8579972 L121.597527,8.41388811 C121.597527,7.2895835 121.373974,6.21530434 120.933833,5.22009765" id="Fill-15" fill="#FFFFFF"></path>
                </g>
            </g>
        </g>
    </g>
</svg>